<svg width="24" height="24" viewBox="0 0 24 24" fill="none" xmlns="http://www.w3.org/2000/svg">
<path d="M8.29446 14L6.52743 21.0681C6.34097 21.814 7.26385 22.324 7.79618 21.7693L19.7916 9.2693C20.2491 8.79255 19.9112 8 19.2505 8H14.791L16.462 2.98717C16.6238 2.50152 16.2624 2 15.7505 2H8.75046C8.4156 2 8.12131 2.22198 8.02931 2.54396L5.02931 13.044C4.89242 13.5231 5.25217 14 5.75046 14H8.29446ZM13.0389 8.51283C12.8771 8.99848 13.2385 9.5 13.7505 9.5H17.4913L8.66668 18.6958L9.98265 13.4319C10.101 12.9585 9.74297 12.5 9.25504 12.5H6.74475L9.31618 3.5H14.7099L13.0389 8.51283Z" fill="white"/>
</svg>
