<svg width="727" height="248" viewBox="0 0 727 248" fill="none" xmlns="http://www.w3.org/2000/svg">
<path fill-rule="evenodd" clip-rule="evenodd" d="M28.6928 0.376327C19.755 2.15408 12.4957 8.87687 10.2353 17.4697C9.49161 20.2982 9.40331 25.9647 10.0603 28.7108C11.0432 32.8159 13.1817 36.5248 16.4142 39.7286C21.35 44.6206 26.2834 46.6593 33.1229 46.6337C43.888 46.5931 53.3447 38.8257 55.6019 28.1708C56.7092 22.9439 56.0305 17.9395 53.5209 12.8158C49.1778 3.9507 38.2498 -1.52428 28.6928 0.376327ZM288.372 0.564619C277.576 2.95262 269.972 12.4352 270.018 23.455C270.045 29.9726 272.165 34.9719 276.92 39.7286C281.804 44.6138 286.746 46.6597 293.601 46.6337C305.619 46.5883 315.63 37.1234 316.519 24.9654C317.63 9.75209 303.24 -2.7231 288.372 0.564619ZM130.44 42.3246V60.9934H111.777H93.114V79.6622V98.331H111.777H130.44V172.806V247.28H176.997H223.554V228.611V209.942H195.66H167.766V154.137V98.331H195.66H223.554V79.6622V60.9934H195.66H167.766V42.3246V23.6557H149.103H130.44V42.3246ZM0 79.2607V97.9296H9.23113H18.4623V172.404V246.879H37.3259H56.1895V153.735V60.5919H28.0947H0V79.2607ZM260.88 79.2607V97.9296H270.111H279.342V172.404V246.879H298.005H316.668V153.735V60.5919H288.774H260.88V79.2607ZM358.651 74.1419C361.387 81.3733 377.222 123.153 393.841 166.984L424.058 246.678H446.899H469.74L502.155 161.163C519.983 114.129 535.824 72.3505 537.358 68.3204L540.145 60.9934H521.404H502.663L475.022 133.962C459.82 174.096 447.262 207.167 447.116 207.456C446.969 207.745 434.315 174.909 418.994 134.487L391.139 60.9934H372.408H353.678L358.651 74.1419ZM577.146 79.6622V98.331H623.703H670.26V111.357V124.383L638.453 124.532L606.646 124.68L601.785 125.75C586.186 129.183 574.452 136.501 565.635 148.296C549.355 170.075 549.408 202.638 565.757 224.081C573.917 234.782 587.07 242.713 601.529 245.651C611.509 247.679 619.073 247.618 628.86 245.43C641.7 242.56 656.303 235.418 667.25 226.656L670.06 224.407L670.166 235.844L670.273 247.28H698.16H726.048V228.611V209.942H716.817H707.586V135.468V60.9934H642.366H577.146V79.6622ZM670.251 170.698C670.245 180.528 670.073 187.993 669.829 189.066C668.897 193.157 663.44 200.304 658.031 204.515C648.572 211.88 638.193 215.214 626.513 214.639C616.41 214.142 608.614 210.499 603.118 203.71C596.09 195.027 594.72 181.553 599.811 171.168C604.201 162.209 612.791 156.053 622.916 154.606C624.343 154.403 635.579 154.213 647.885 154.186L670.26 154.137L670.251 170.698Z" fill="white"/>
</svg>
