<svg width="1809" height="616" viewBox="0 0 1809 616" fill="none" xmlns="http://www.w3.org/2000/svg">
<path fill-rule="evenodd" clip-rule="evenodd" d="M71.49 1.01602C49.221 5.44402 31.134 22.189 25.502 43.592C23.649 50.637 23.429 64.751 25.066 71.591C27.515 81.816 32.843 91.054 40.897 99.034C53.195 111.219 65.487 116.297 82.528 116.233C109.35 116.132 132.912 96.785 138.536 70.246C141.295 57.227 139.604 44.762 133.351 32C122.53 9.91902 95.302 -3.71798 71.49 1.01602ZM718.5 1.48502C691.599 7.43302 672.653 31.052 672.768 58.5C672.835 74.734 678.119 87.186 689.966 99.034C702.135 111.202 714.447 116.298 731.528 116.233C761.472 116.12 786.414 92.545 788.628 62.262C791.398 24.369 755.544 -6.70398 718.5 1.48502ZM325 105.5V152H278.5H232V198.5V245H278.5H325V430.5V616H441H557V569.5V523H487.5H418V384V245H487.5H557V198.5V152H487.5H418V105.5V59H371.5H325V105.5ZM0 197.5V244H23H46V429.5V615H93H140V383V151H70H0V197.5ZM650 197.5V244H673H696V429.5V615H742.5H789V383V151H719.5H650V197.5ZM893.605 184.75C900.421 202.762 939.876 306.825 981.283 416L1056.57 614.5H1113.48H1170.39L1251.16 401.5C1295.57 284.35 1335.04 180.288 1338.86 170.25L1345.81 152H1299.11H1252.42L1183.55 333.75C1145.67 433.713 1114.38 516.088 1114.02 516.807C1113.66 517.526 1082.13 435.738 1043.95 335.057L974.55 152H927.881H881.213L893.605 184.75ZM1438 198.5V245H1554H1670V277.445V309.89L1590.75 310.26L1511.5 310.629L1499.39 313.294C1460.52 321.845 1431.29 340.072 1409.32 369.451C1368.76 423.699 1368.89 504.806 1409.62 558.217C1429.95 584.87 1462.72 604.625 1498.75 611.943C1523.62 616.994 1542.46 616.841 1566.85 611.392C1598.84 604.242 1635.22 586.455 1662.5 564.629L1669.5 559.028L1669.77 587.514L1670.03 616H1739.52H1809V569.5V523H1786H1763V337.5V152H1600.5H1438V198.5ZM1669.98 425.25C1669.96 449.735 1669.53 468.329 1668.93 471C1666.6 481.192 1653.01 498.992 1639.53 509.481C1615.96 527.826 1590.1 536.129 1561 534.697C1535.83 533.459 1516.4 524.387 1502.71 507.476C1485.2 485.849 1481.79 452.288 1494.47 426.42C1505.41 404.107 1526.81 388.772 1552.04 385.169C1555.59 384.662 1583.59 384.191 1614.25 384.123L1670 384L1669.98 425.25Z" fill="#1A1A1A"/>
</svg>
